<svg xmlns="http://www.w3.org/2000/svg" xmlns:xlink="http://www.w3.org/1999/xlink" width="1500" height="1500" viewBox="0 0 1500 1500">
  <defs>
    <clipPath id="clip-undraw_fitting_pieces_cli3">
      <rect width="1500" height="1500"/>
    </clipPath>
  </defs>
  <g id="undraw_fitting_pieces_cli3" clip-path="url(#clip-undraw_fitting_pieces_cli3)">
    <rect width="1500" height="1500" fill="#fff"/>
    <path id="Path_9017" data-name="Path 9017" d="M477.008,498H405v94.413h72.008Z" transform="translate(436.894 -222.595)" fill="#f8eee7"/>
    <path id="Path_9019" data-name="Path 9019" d="M477.008,498H405v94.413h72.008Z" transform="translate(436.894 -116.132)" fill="#f8eee7"/>
    <path id="Path_9018" data-name="Path 9018" d="M477.008,498H405v94.413h72.008Z" transform="translate(520.896 -222.595)" fill="#f8eee7"/>
    <path id="Path_9020" data-name="Path 9020" d="M477.008,498H405v94.413h72.008Z" transform="translate(520.896 -116.132)" fill="#f8eee7"/>
    <path id="Rectangle_1649" data-name="Rectangle 1649" d="M5.463,5.463v314.5h183.4V5.463H5.463M0,0H194.321V325.43H0Z" transform="translate(822.736 257.348)" fill="#f8eee7"/>
    <path id="Path_8987" data-name="Path 8987" d="M510.079,1103.158A178.079,178.079,0,1,0,332,925.079,178.079,178.079,0,0,0,510.079,1103.158Z" transform="translate(-187.239 -14.375)" fill="#f2f2f2"/>
    <path id="Path_8988" data-name="Path 8988" d="M530.079,1085.158A178.079,178.079,0,1,0,352,907.079,178.079,178.079,0,0,0,530.079,1085.158Z" transform="translate(-178.284 -22.436)" fill="#e8cfbe"/>
    <path id="Path_8989" data-name="Path 8989" d="M546.362,514H390V670.362H546.362Z" transform="translate(-161.268 -118.712)" fill="#f2f2f2"/>
    <path id="Path_8990" data-name="Path 8990" d="M561.362,498H405V654.362H561.362Z" transform="translate(-154.55 -125.877)" fill="#e8cfbe"/>
    <path id="Path_8991" data-name="Path 8991" d="M733.207,1106.68H503.857v2.708h229.35Z" transform="translate(-110.281 146.688)" fill="#3f3d56"/>
    <path id="Path_8992" data-name="Path 8992" d="M629.587,647.587H424V442H629.587Zm-202.691-2.9h199.8V444.9H426.9Z" transform="translate(-146.042 -150.953)" fill="#f8eee7"/>
    <path id="Path_8993" data-name="Path 8993" d="M673.538,717H633v40.538h40.538Z" transform="translate(-52.451 -27.809)" fill="#f2f2f2"/>
    <path id="Path_8994" data-name="Path 8994" d="M679.538,710H639v40.538h40.538Z" transform="translate(-49.765 -30.944)" fill="#eb972c"/>
    <path id="Path_8995" data-name="Path 8995" d="M714.6,748.6H648V682h66.6Zm-63.7-2.9H711.7V684.9H650.9Z" transform="translate(-45.736 -43.482)" fill="#f8eee7"/>
    <path id="Path_8996" data-name="Path 8996" d="M651.513,1246.025c-122.142,0-221.513-99.377-221.513-221.513S529.371,803,651.513,803s221.513,99.371,221.513,221.513S773.655,1246.025,651.513,1246.025Zm0-440.13c-120.546,0-218.617,98.071-218.617,218.617s98.071,218.617,218.617,218.617,218.617-98.074,218.617-218.617S772.059,805.9,651.513,805.9Z" transform="translate(-143.356 10.701)" fill="#f8eee7"/>
    <path id="Path_8997" data-name="Path 8997" d="M1090.207,1111.68H860.857v2.707h229.35Z" transform="translate(49.581 148.926)" fill="#3f3d56"/>
    <path id="Path_8998" data-name="Path 8998" d="M1239.205,941.676H1009.86v2.713h229.345Z" transform="translate(116.303 72.8)" fill="#3f3d56"/>
    <path id="Path_8999" data-name="Path 8999" d="M977.517,501.388h0c-43.7,11.837-68.471,60.745-55.334,109.238l16.69,61.611,18.949-5.132,4.786-25.8,3.441,23.57,121.8-32.994,4.343-23.453,3.127,21.427,13.725-3.715-13.117-48.375C1080.812,521.961,1027.8,487.767,977.517,501.388Z" transform="translate(75.466 -125.699)" fill="#551f11"/>
    <path id="Path_9000" data-name="Path 9000" d="M897.5,1021.5l18.821,66.6-2.9,24.613,55.016-11.582s-23.165-39.091-20.269-59.36Z" transform="translate(65.99 108.544)" fill="#d6a880"/>
    <path id="Path_9001" data-name="Path 9001" d="M1073.978,859.858,1059.5,938.039l47.777-7.239,2.172-81.8Z" transform="translate(138.532 31.3)" fill="#d6a880"/>
    <path id="Path_9002" data-name="Path 9002" d="M986.621,628.741A52.121,52.121,0,1,0,934.5,576.621,52.121,52.121,0,0,0,986.621,628.741Z" transform="translate(82.559 -114.01)" fill="#d6a880"/>
    <path id="Path_9003" data-name="Path 9003" d="M967.06,591.03l-2.9,28.956L941,633.016l60.807,134.645,46.33-111.48-30.4-23.165-2.9-55.016Z" transform="translate(85.469 -90.053)" fill="#d6a880"/>
    <path id="Path_9004" data-name="Path 9004" d="M1035.534,719.718l-59.295-107.4s-47.842,3.158-59.425,13.292L939.98,773.286l-7.239,18.821s-59.36,60.807-47.777,192.557,11.582,234.543,11.582,234.543,41.986,49.225,128.854,0V957.156l123.063-10.135v31.852s127.406-31.852,130.3-79.629l-32.778-56.926a56.354,56.354,0,0,0-64.948-25.9l-107.861,32.148-11.582-43.434,11.582-31.851s30.4-23.165,30.4-53.568,8.687-66.6,8.687-66.6l-56.319-25.984Z" transform="translate(59.704 -74.685)" fill="#534210"/>
    <path id="Path_9005" data-name="Path 9005" d="M1070.731,678.5l23.165,56.464s24.613,28.956,28.956,60.807l7.239,37.643s17.374,66.6-10.135,63.7-20.269-66.6-20.269-66.6l-4.344-18.821-24.613-40.538-36.311-69.031Z" transform="translate(127.301 -45.049)" fill="#d6a880"/>
    <path id="Path_9006" data-name="Path 9006" d="M1071.468,906.021s41.422,4.064,49.674-14.618l41.537,33.44s75.242,20.149,33.3,37.643c-39.091,16.306-78.181-1.1-78.181,2.9,0,0-11.582-10.134-24.613-2.9s-52.121,0-50.673-11.583S1049.751,897.335,1071.468,906.021Z" transform="translate(130.909 50.288)" fill="#551f11"/>
    <path id="Path_9007" data-name="Path 9007" d="M918.468,1077.023s41.429,4.068,49.67-14.623l41.542,33.444s75.532,20.863,33.3,37.643c-39.05,15.52-78.161-.869-78.181,2.9,0,0-11.582-10.135-24.613-2.9s-52.121,0-50.673-11.582S896.751,1068.336,918.468,1077.023Z" transform="translate(62.395 126.859)" fill="#551f11"/>
    <path id="Path_9008" data-name="Path 9008" d="M1032.978,636.5l18.821,5.791,40.538,60.807L1018.5,752.324Z" transform="translate(120.173 -63.857)" fill="#96aabf"/>
    <path id="Path_9009" data-name="Path 9009" d="M1003.837,515.823c-10.715-8.077-24.187-11.383-37.266-7.838l-1.554.42c-29.949,8.113-46.887,41.792-37.831,75.222h0l10.036-2.718L935.5,568.133l5.717,11.692,59.519-16.124,2.16-11.786,1.581,10.774,11.708-3.172q19.221,38.482-1.5,87.784l19.952-5.4,4.314-23.575,3.156,21.549,38.019-10.3-5.516-50.034C1064.869,543.584,1035.725,518.756,1003.837,515.823Z" transform="translate(78.19 -122.038)" fill="#551f11"/>
    <path id="Path_9010" data-name="Path 9010" d="M996.06,525.121A26.06,26.06,0,1,0,970,499.06,26.06,26.06,0,0,0,996.06,525.121Z" transform="translate(98.454 -137.071)" fill="#551f11"/>
    <path id="Path_9011" data-name="Path 9011" d="M996.866,516.6a26.046,26.046,0,0,1-9.169-50.43,26.045,26.045,0,1,0,12.547,50.186,26.349,26.349,0,0,1-3.378.243Z" transform="translate(96.202 -140.131)" fill="#551f11"/>
    <path id="Path_9012" data-name="Path 9012" d="M995.515,572.821c3.6,0,6.515-4.213,6.515-9.411S999.113,554,995.515,554,989,558.213,989,563.411,991.917,572.821,995.515,572.821Z" transform="translate(106.964 -100.8)" fill="#d6a880"/>
    <path id="Path_9013" data-name="Path 9013" d="M945.958,940.107c-35.84-5.335-79.255-4.094-125.958,0q29.207-53.554,0-94.107a522.542,522.542,0,0,0,125.958,0C928.021,875.862,929.6,907.363,945.958,940.107Z" transform="translate(31.286 29.957)" fill="#f8eee7"/>
    <path id="Path_9014" data-name="Path 9014" d="M909.669,681.5l-4.343,57.912s-20.269,31.851-24.612,99.9L879.265,881.3s-30.4,59.36-5.791,57.912,23.165-56.464,23.165-56.464l43.434-125.958V695.978Z" transform="translate(50.925 -43.706)" fill="#d6a880"/>
    <path id="Path_9015" data-name="Path 9015" d="M930.068,622.5H919.934s-15.926,10.135-28.956,53.568S876.5,720.95,876.5,720.95l68.046,15.926Z" transform="translate(56.585 -70.126)" fill="#96aabf"/>
    <path id="Path_9016" data-name="Path 9016" d="M890.538,866H850v40.538h40.538Z" transform="translate(44.72 38.912)" fill="#eb972c"/>
    <ellipse id="Ellipse_1292" data-name="Ellipse 1292" cx="5.5" cy="8" rx="5.5" ry="8" transform="translate(1024.008 468.826) rotate(-16)" fill="#551f11"/>
    <ellipse id="Ellipse_1293" data-name="Ellipse 1293" cx="5.5" cy="8" rx="5.5" ry="8" transform="translate(1057.992 459.619) rotate(-16)" fill="#551f11"/>
  </g>
</svg>
