<svg xmlns="http://www.w3.org/2000/svg" xmlns:xlink="http://www.w3.org/1999/xlink" width="1500" height="1500" viewBox="0 0 1500 1500">
  <defs>
    <clipPath id="clip-undraw_visualization_c-2-ps">
      <rect width="1500" height="1500"/>
    </clipPath>
  </defs>
  <g id="undraw_visualization_c-2-ps" clip-path="url(#clip-undraw_visualization_c-2-ps)">
    <rect width="1500" height="1500" fill="#fff"/>
    <rect id="Rectangle_1332" data-name="Rectangle 1332" width="94.925" height="1004.748" transform="translate(406.989 220.137) rotate(-20.432)" fill="#efd8c9"/>
    <path id="Path_7408" data-name="Path 7408" d="M666.5,1023.867c-213.89,0-397.995-151.091-439.723-360.872S297.324,243.17,494.933,161.317s425.52-12.716,544.351,165.127,95.487,414.863-55.757,566.107A445.405,445.405,0,0,1,666.5,1023.867Zm0-893.759c-245.605,0-445.419,199.814-445.419,445.419S420.9,1020.946,666.5,1020.946s445.419-199.814,445.419-445.419S912.108,130.108,666.5,130.108Z" transform="translate(-26.221 151.851)" fill="#551f11"/>
    <path id="Path_7409" data-name="Path 7409" d="M1174.027,815.953C1049.475,947.938,841.516,953.972,709.52,829.433S571.5,496.916,696.056,364.926s332.5-138.019,464.492-13.479C1292.537,476,1298.568,683.963,1174.027,815.953Z" transform="translate(152.559 213.869)" fill="#e2963d" opacity="0.696"/>
    <path id="Path_7410" data-name="Path 7410" d="M297.427,164.534S227.382,144.8,206.664,240.5s-4.933,144.037-4.933,144.037L358.1,366.284S402.5,193.637,297.427,164.534Z" transform="translate(-36.416 168.29)" fill="#551f11"/>
    <path id="Path_7411" data-name="Path 7411" d="M171.913,521.459l31.935,137.72,5.988,53.89s-3.888,56.382,17.117,105.824q.416.98.846,1.956c21.955,49.9,19.959,67.862,19.959,67.862h25.947l-3.992-85.825s0-61.874-9.98-85.825l-5.988-187.618Z" transform="translate(-47.495 333.389)" fill="#ddb08e"/>
    <path id="Path_7412" data-name="Path 7412" d="M247.083,543.11l93.809,169.655s17.963,71.854,37.923,93.809l45.907,93.809L444.68,862.46,390.79,678.834l-49.9-143.708Z" transform="translate(-12.887 339.682)" fill="#ddb08e"/>
    <path id="Path_7413" data-name="Path 7413" d="M266.559,766.1l-33.931,2-2,31.935S168.758,863.9,210.673,865.9s47.9-15.967,47.9-15.967,23.951-17.964,23.951-25.947-3.992-31.935-7.984-37.923S266.559,766.1,266.559,766.1Z" transform="translate(-36.356 446.02)" fill="#551f11"/>
    <path id="Path_7414" data-name="Path 7414" d="M393.713,749.7,357.786,779.64s27.943,73.85,39.919,71.854,109.777-71.854,99.8-83.829-23.951-3.992-23.951-3.992-43.911,21.955-53.89,11.976Z" transform="translate(38.08 438.469)" fill="#551f11"/>
    <path id="Path_7415" data-name="Path 7415" d="M192.954,443.015l-17.963,67.862s-43.911,45.907-27.943,51.894,27.943,0,29.939,7.984,63.87,27.943,87.821,21.955l11.976-5.988s7.984,25.947,19.959,23.951,107.781-2,105.785-7.984-15.968-27.943-15.968-33.931-9.98-29.939-9.98-29.939a6.968,6.968,0,0,0,2-3.992c0-2-3.992-103.789-3.992-103.789l-161.671-7.984Z" transform="translate(-60.552 288.085)" fill="#554410"/>
    <circle id="Ellipse_1183" data-name="Ellipse 1183" cx="51.894" cy="51.894" r="51.894" transform="translate(194.276 381.812)" fill="#ddb08e"/>
    <path id="Path_7416" data-name="Path 7416" d="M255.621,262.25s5.988,35.927-15.967,45.907l-21.955,9.98L303.523,384l29.939-81.833s-29.939-5.988-27.943-47.9Z" transform="translate(-26.416 210.377)" fill="#ddb08e"/>
    <path id="Path_7417" data-name="Path 7417" d="M265.977,301.758s55.2,13.062,77.5-18.418l50.244,6.443L379.746,451.453s2,87.821-19.959,89.817-13.972-17.963-13.972-17.963-9.98,13.971-25.947,13.971-47.9-11.976-47.9-11.976-45.907-5.988-59.878-3.992-73.85,11.976-15.967-45.907c0,0,29.939-19.959,25.947-25.947s-9.98-31.935-9.98-31.935l2-111.772,44.185-9.741Z" transform="translate(-47.75 223.761)" fill="#96aabf"/>
    <path id="Path_7418" data-name="Path 7418" d="M187.468,476.337s47.9,31.935,57.882,7.984S201.44,450.39,201.44,450.39l-19.959,7.984Z" transform="translate(-43.09 300.67)" fill="#ddb08e"/>
    <path id="Path_7419" data-name="Path 7419" d="M305.535,477.814s-59.878-3.992-49.9,17.963,65.866,3.992,65.866,3.992Z" transform="translate(-9.466 313.165)" fill="#ddb08e"/>
    <path id="Path_7420" data-name="Path 7420" d="M235.655,302.676l-9.98-3.992s-15.967,9.98-29.939,41.915-39.919,85.825-39.919,85.825-11.976,2-5.988,13.972,5.988,9.98,2,15.967-7.984,11.976-3.992,15.968,7.984,3.992,5.988,11.976-2,15.967,0,17.963,17.963,11.976,15.967,17.963-9.98,7.984,2,7.984,15.968,19.959,15.968,19.959l23.951,3.992s-13.972-27.943,15.967-29.939c0,0-7.984-5.988-7.984-11.976s5.988-5.988-3.992-7.984-11.976-3.992-9.98-9.98,3.992-9.98,0-9.98-7.984,5.988-3.992,0-7.984-17.963-7.984-17.963,23.951-61.874,39.919-67.862S235.655,302.676,235.655,302.676Z" transform="translate(-59.342 230.826)" fill="#96aabf"/>
    <path id="Path_7421" data-name="Path 7421" d="M327.157,289.747l15.967-2s19.959,3.992,25.947,27.943,7.984,149.7,7.984,149.7-7.984,7.984-3.992,17.963,5.988,7.984,2,13.972-11.976,9.98-11.976,17.963,0,11.976-3.992,13.971-9.98,0-9.98,5.988-17.963,19.959-15.968,23.951,9.98,19.959-17.963,27.943l-9.98,9.98s-11.976-31.935-23.951-31.935c0,0,9.98-2,7.984-9.98s5.988-11.976,5.988-11.976l33.931-49.9,5.988-27.943L307.2,409.5Z" transform="translate(2.843 225.793)" fill="#96aabf"/>
    <path id="Path_7422" data-name="Path 7422" d="M293.124,184.073s-19.731,52.287-68.072,73.992L217.16,211.7Z" transform="translate(-26.664 178.06)" fill="#551f11"/>
    <ellipse id="Ellipse_1184" data-name="Ellipse 1184" cx="6.653" cy="9.98" rx="6.653" ry="9.98" transform="translate(292.41 418.736)" fill="#ddb08e"/>
    <rect id="Rectangle_1333" data-name="Rectangle 1333" width="655.715" height="2.921" transform="translate(760.466 1311.063)" fill="#cbcbcb"/>
    <rect id="Rectangle_1334" data-name="Rectangle 1334" width="655.715" height="2.921" transform="translate(760.466 1238.044)" fill="#cbcbcb"/>
    <path id="Path_7423" data-name="Path 7423" d="M1070.438,815.953A327.63,327.63,0,0,1,831.445,919.027V261.852a327.456,327.456,0,0,1,225.513,89.595C1188.949,476,1194.98,683.963,1070.438,815.953Z" transform="translate(256.147 213.869)" fill="#e2963d"/>
    <circle id="Ellipse_1185" data-name="Ellipse 1185" cx="21.906" cy="21.906" r="21.906" transform="translate(1230.711 382.256)" fill="#dec8bb"/>
    <circle id="Ellipse_1186" data-name="Ellipse 1186" cx="39.431" cy="39.431" r="39.431" transform="translate(754.624 1093.466)" fill="#dec8bb"/>
    <circle id="Ellipse_1187" data-name="Ellipse 1187" cx="24.827" cy="24.827" r="24.827" transform="translate(704.971 509.31)" fill="#dec8bb"/>
    <path id="Path_7424" data-name="Path 7424" d="M699.445,640.623c0,106.465,192.771,192.771,192.771,192.771V447.852S699.445,534.159,699.445,640.623Z" transform="translate(195.376 299.501)" fill="#e2963d"/>
    <path id="Path_7425" data-name="Path 7425" d="M831.446,447.852V833.395s192.771-86.307,192.771-192.771S831.446,447.852,831.446,447.852Z" transform="translate(256.147 299.501)" fill="#ebb678"/>
    <circle id="Ellipse_1191" data-name="Ellipse 1191" cx="7.5" cy="7.5" r="7.5" transform="translate(262 421)" fill="#551f11"/>
    <circle id="Ellipse_1192" data-name="Ellipse 1192" cx="7.5" cy="7.5" r="7.5" transform="translate(213 421)" fill="#551f11"/>
  </g>
</svg>
